<?xml version="1.0" encoding="utf-8"?>
<!-- Generator: Adobe Illustrator 23.0.6, SVG Export Plug-In . SVG Version: 6.00 Build 0)  -->
<svg version="1.1" id="Layer_1" xmlns="http://www.w3.org/2000/svg" xmlns:xlink="http://www.w3.org/1999/xlink" x="0px" y="0px"
	 viewBox="0 0 200 19.1" style="enable-background:new 0 0 200 19.1;" xml:space="preserve">
<style type="text/css">
	.st0{fill:#14202a;}
	.st1{opacity:0.55;fill:#14202a;enable-background:new    ;}
</style>
<title>Artboard 8</title>
<path class="st0" d="M39.1,16.8h-7.2v-14c0-0.1-0.1-0.2-0.2-0.2h-2.2c-0.1,0-0.2,0.1-0.2,0.2V19c0,0.1,0.1,0.2,0.2,0.2h9.6
	c0.1,0,0.2-0.1,0.2-0.2v-2C39.3,16.9,39.2,16.8,39.1,16.8z"/>
<path class="st0" d="M46.7,2.6h11.8c0.1,0,0.2,0.1,0.2,0.2v1.8c0,0.1-0.1,0.2-0.2,0.2H46.7c-0.1,0-0.2-0.1-0.2-0.2V2.8
	C46.5,2.7,46.6,2.6,46.7,2.6z"/>
<path class="st0" d="M46.9,16.8h11.6c0.1,0,0.2,0.1,0.2,0.2v1.8c0,0.1-0.1,0.2-0.2,0.2H46.9c-0.1,0-0.2-0.1-0.2-0.2V17
	C46.6,16.9,46.7,16.8,46.9,16.8z"/>
<path class="st0" d="M46.7,9.7h11.8c0.1,0,0.2,0.1,0.2,0.2v1.8c0,0.1-0.1,0.2-0.2,0.2H46.7c-0.1,0-0.2-0.1-0.2-0.2V9.9
	C46.5,9.8,46.6,9.7,46.7,9.7z"/>
<path class="st0" d="M21,9.7h-3.9l-3-7c0-0.1-0.1-0.2-0.2-0.2h-2.7c-0.1,0-0.2,0.1-0.2,0.2l-3.1,7H4c-0.1,0-0.2,0.1-0.2,0.2v1.8
	C3.8,11.9,3.9,12,4,12h2.9l-3,6.8c-0.1,0.1,0,0.3,0.1,0.3h0.1h2.2c0.1,0,0.2-0.1,0.2-0.1l5.9-13.9l5.8,14c0,0.1,0.1,0.2,0.2,0.1h2.4
	c0.1,0,0.2-0.1,0.2-0.3v-0.1L18,12h3c0.1,0,0.2-0.1,0.2-0.2V10C21.3,9.9,21.2,9.7,21,9.7L21,9.7z"/>
<path class="st0" d="M103.2,9.7h-2.4V2.8c0-0.1-0.1-0.2-0.2-0.2h-2.2c-0.1,0-0.2,0.1-0.2,0.2v6.9h-6.7c-0.1,0-0.2,0.1-0.2,0.2v1.8
	c0,0.1,0.1,0.2,0.2,0.2H98v7c0,0.1,0.1,0.2,0.2,0.2h2.2c0.1,0,0.2-0.1,0.2-0.2v-7h2.4c0.1,0,0.2-0.1,0.2-0.2V10
	C103.4,9.9,103.3,9.7,103.2,9.7L103.2,9.7z"/>
<path class="st0" d="M78.8,4.1c-1.4-1.1-3.1-1.6-4.9-1.5h-6.4c-0.1,0-0.2,0.1-0.2,0.2v1.8c0,0.1,0.1,0.2,0.2,0.2h6.4
	c1.2-0.1,2.4,0.2,3.4,0.9c0.7,0.6,1,1.5,0.9,2.5c0.1,1-0.3,2-1,2.7c-0.9,0.7-2.1,1.1-3.3,1h-6.4c-0.1,0-0.2,0.1-0.2,0.2V19
	c0,0.1,0.1,0.2,0.2,0.2h2.2c0.1,0,0.2-0.1,0.2-0.2v-4.7h3.9c1.8,0.1,3.5-0.5,4.9-1.6c1.2-1.2,1.8-2.8,1.7-4.4
	C80.5,6.7,79.9,5.2,78.8,4.1z"/>
<path class="st0" d="M86.4,2.6h2.2c0.1,0,0.2,0.1,0.2,0.2V19c0,0.1-0.1,0.2-0.2,0.2h-2.2c-0.1,0-0.2-0.1-0.2-0.2V2.8
	C86.2,2.7,86.3,2.6,86.4,2.6z"/>
<path class="st0" d="M132,16.9h-9.7l9.7-12c0,0,0-0.1,0.1-0.1v-2c0-0.1-0.1-0.2-0.2-0.2h-11.7c-0.1,0-0.2,0.1-0.2,0.2v1.8
	c0,0.1,0.1,0.2,0.2,0.2h9.1l-9.8,11.9v0.1v2c0,0.1,0.1,0.2,0.2,0.2H132c0.1,0,0.2-0.1,0.2-0.2V17C132.2,17,132.1,16.9,132,16.9z"/>
<path class="st0" d="M140.2,2.5H152c0.1,0,0.2,0.1,0.2,0.2v1.8c0,0.1-0.1,0.2-0.2,0.2h-11.8c-0.1,0-0.2-0.1-0.2-0.2V2.8
	C140,2.7,140.1,2.5,140.2,2.5z"/>
<path class="st0" d="M140.2,16.9H152c0.1,0,0.2,0.1,0.2,0.2v1.8c0,0.1-0.1,0.2-0.2,0.2h-11.8c-0.1,0-0.2-0.1-0.2-0.2v-1.8
	C140,17,140.1,16.9,140.2,16.9z"/>
<path class="st0" d="M140.2,9.7H152c0.1,0,0.2,0.1,0.2,0.2v1.8c0,0.1-0.1,0.2-0.2,0.2h-11.8c-0.1,0-0.2-0.1-0.2-0.2V9.9
	C140,9.8,140.1,9.7,140.2,9.7z"/>
<path class="st0" d="M170.7,13.5c0.4-0.2,0.8-0.5,1.1-0.8c1.2-1.2,1.8-2.8,1.7-4.4c0.1-1.6-0.5-3.1-1.7-4.2
	c-1.4-1.1-3.2-1.6-4.9-1.5h-6.4c-0.1,0-0.2,0.1-0.2,0.2v1.8c0,0.1,0.1,0.2,0.2,0.2h6.4c1.2-0.1,2.4,0.2,3.4,0.9
	c0.7,0.6,1,1.6,0.9,2.5c0.1,1-0.3,2-1,2.8c-1,0.7-2.2,1.1-3.4,1h-6.4c-0.1,0-0.2,0.1-0.2,0.2v6.7c0,0.1,0.1,0.2,0.2,0.2h2.2
	c0.1,0,0.2-0.1,0.2-0.2v-4.6h3.9c0.5,0,0.9,0,1.4-0.1l2,4.8c0,0.1,0.1,0.2,0.2,0.1h2.2c0.1,0,0.3-0.1,0.3-0.3v-0.1L170.7,13.5z"/>
<path class="st0" d="M195.2,10.9c0,1.2-0.2,2.3-0.6,3.4c-0.4,1-1,1.9-1.7,2.6s-1.6,1.3-2.5,1.6c-2,0.8-4.2,0.8-6.2,0
	c-0.9-0.4-1.8-0.9-2.5-1.6c-0.8-0.8-1.3-1.7-1.7-2.7c-0.4-1.1-0.6-2.2-0.6-3.4c0-1.1,0.2-2.2,0.6-3.3c0.4-1,0.9-1.8,1.6-2.6
	c0.7-0.8,1.6-1.4,2.5-1.8c2.1-0.8,4.4-0.8,6.5,0c0.9,0.4,1.8,0.9,2.5,1.7s1.3,1.7,1.6,2.6C195,8.6,195.2,9.8,195.2,10.9z
	 M192.7,11.1c0-0.9-0.1-1.9-0.4-2.8c-0.3-0.8-0.7-1.5-1.3-2.2c-0.5-0.5-1-0.9-1.6-1.1c-0.7-0.3-1.4-0.4-2.1-0.4
	c-0.8,0-1.5,0.1-2.2,0.4c-0.6,0.3-1.1,0.6-1.5,1.1c-0.6,0.6-1,1.3-1.3,2.1c-0.3,0.9-0.5,1.8-0.5,2.7s0.1,1.9,0.4,2.7
	c0.3,0.8,0.8,1.6,1.4,2.2c0.4,0.5,1,0.8,1.6,1.1s1.3,0.4,2,0.4s1.4-0.1,2.1-0.4c0.6-0.2,1.2-0.6,1.6-1.1c0.6-0.6,1.1-1.3,1.4-2.1
	C192.6,12.9,192.7,12,192.7,11.1z"/>
<path class="st1" d="M192.5,2.6l-13.1,16.1c-0.1,0.1-0.1,0.3,0,0.4c0.1,0,0.1,0.1,0.2,0.1h2.1c0.1,0,0.2,0,0.2-0.1L195.1,3
	c0.1-0.1,0.1-0.3,0-0.4c-0.1,0-0.1-0.1-0.2-0.1h-2.1C192.7,2.6,192.6,2.6,192.5,2.6z"/>
</svg>
